<svg xmlns="http://www.w3.org/2000/svg" version="1.1" xmlns:xlink="http://www.w3.org/1999/xlink" xmlns:svgjs="http://svgjs.dev/svgjs" width="1440" height="560" preserveAspectRatio="none" viewBox="0 0 1440 560">
    <g mask="url(&quot;#SvgjsMask1023&quot;)" fill="none">
        <path d="M859.2579339565895 202.6295871153347L814.4768701667759 125.06650941439482 736.9137924658361 169.8475732042083 781.6948562556496 247.41065090514817z" fill="rgba(28, 83, 142, 0.4)" class="triangle-float2"></path>
        <path d="M1044.917,696.392C1090.463,694.383,1127.61,663.877,1150.189,624.271C1172.521,585.097,1181.665,536.579,1157.85,498.289C1135.03,461.599,1088.12,455.658,1044.917,455.016C1000.123,454.35,951.311,457.87,926.014,494.843C897.864,535.984,896.903,591.389,922.232,634.324C947.191,676.631,995.844,698.556,1044.917,696.392" fill="rgba(28, 83, 142, 0.4)" class="triangle-float2"></path>
        <path d="M117.84633267702598 304.999654552751L214.49876604534273 398.335824514323 307.83493600691475 301.6833911460062 211.18250263859798 208.34722118443426z" fill="rgba(28, 83, 142, 0.4)" class="triangle-float1"></path>
        <path d="M619.704,573.342C649.304,573.005,680.231,567.017,696.531,542.307C714.393,515.229,717.115,479.151,700.029,451.576C683.67,425.173,650.728,416.826,619.704,418.315C591.483,419.669,566.86,434.848,551.709,458.695C535.19,484.695,524.078,517.595,539.791,544.09C555.3,570.24,589.303,573.688,619.704,573.342" fill="rgba(28, 83, 142, 0.4)" class="triangle-float1"></path>
        <path d="M1333.2061948932237 550.988670784017L1275.3758134329541 400.3353764347978 1124.722519083735 458.16575789506726 1182.5529005440044 608.8190522442865z" fill="rgba(28, 83, 142, 0.4)" class="triangle-float1"></path>
        <path d="M1237.6343898319765 240.9889303020539L1183.7796656316832 139.46964006937063 1129.0664588407951 223.7205902646016z" fill="rgba(28, 83, 142, 0.4)" class="triangle-float3"></path>
        <path d="M513.021,769.88C576.241,774.467,635.988,736.343,666.424,680.742C695.767,627.139,688.808,561.128,655.247,510.06C624.746,463.648,568.55,446.354,513.021,447.316C459.439,448.244,405.182,468.04,379.08,514.844C353.523,560.67,369.473,614.512,393.87,660.966C420.686,712.026,455.499,765.706,513.021,769.88" fill="rgba(28, 83, 142, 0.4)" class="triangle-float3"></path>
        <path d="M231.16356752507198 189.61301773949975L376.70012250996456 184.66963324816484 311.13824403715046 75.55634408150235z" fill="rgba(28, 83, 142, 0.4)" class="triangle-float2"></path>
        <path d="M-19.75238809454912 112.93336061259069L-117.2184993355045 247.08395398327391 114.3982052761341 210.39947185354606z" fill="rgba(28, 83, 142, 0.4)" class="triangle-float3"></path>
        <path d="M451.11625382742193 159.54100201313963L522.4494732294273 80.3174358222158 443.2259070385035 8.984216420210373 371.89268763649807 88.2077826111342z" fill="rgba(28, 83, 142, 0.4)" class="triangle-float1"></path>
        <path d="M989.7212211139516-112.07391367987042L846.5569206452867-48.33306039909048 1053.4620743947316 31.090386788794504z" fill="rgba(28, 83, 142, 0.4)" class="triangle-float1"></path>
        <path d="M54.07724934412984 375.3843945237104L60.02006420430695 488.7800571806111 167.47291200103055 369.4415796635333z" fill="rgba(28, 83, 142, 0.4)" class="triangle-float2"></path>
    </g>
    <defs>
        <mask id="SvgjsMask1023">
            <rect width="1440" height="560" fill="#ffffff"></rect>
        </mask>
        <style>
            @keyframes float1 {
                    0%{transform: translate(0, 0)}
                    50%{transform: translate(-10px, 0)}
                    100%{transform: translate(0, 0)}
                }

                .triangle-float1 {
                    animation: float1 5s infinite;
                }

                @keyframes float2 {
                    0%{transform: translate(0, 0)}
                    50%{transform: translate(-5px, -5px)}
                    100%{transform: translate(0, 0)}
                }

                .triangle-float2 {
                    animation: float2 4s infinite;
                }

                @keyframes float3 {
                    0%{transform: translate(0, 0)}
                    50%{transform: translate(0, -10px)}
                    100%{transform: translate(0, 0)}
                }

                .triangle-float3 {
                    animation: float3 6s infinite;
                }
        </style>
    </defs>
</svg>